<?xml version="1.0" encoding="utf-8"?>
<!-- Generator: Adobe Illustrator 24.2.1, SVG Export Plug-In . SVG Version: 6.00 Build 0)  -->
<svg version="1.1" id="Layer_1" xmlns="http://www.w3.org/2000/svg" xmlns:xlink="http://www.w3.org/1999/xlink" x="0px" y="0px"
	 viewBox="0 0 1671.2 578" style="enable-background:new 0 0 1671.2 578;" xml:space="preserve">
<style type="text/css">
	.st0{fill:#FFFFFF;stroke:#E7EAF3;stroke-miterlimit:10;}
	.st1{fill:#E7EAF3;}
	.st2{fill:#F8FAFD;}
	.st3{fill:url(#SVGID_1_);}
	.st4{fill:url(#SVGID_2_);}
	.st5{clip-path:url(#SVGID_4_);}
	.st6{fill:none;stroke:#E7EAF3;stroke-miterlimit:10;}
	.st7{opacity:0.3;fill:#E7EAF3;enable-background:new    ;}
	.st8{fill:#FFFFFF;}
	.st9{clip-path:url(#SVGID_6_);}
</style>
<path class="st0" d="M1226.3,577H462.5c-14.4,0-26.2-11.8-26.2-26.2V26.7c0-14.4,11.8-26.2,26.2-26.2h763.9
	c14.4,0,26.2,11.8,26.2,26.2v524.2C1252.5,565.2,1240.7,577,1226.3,577z"/>
<circle class="st1" cx="843" cy="23.8" r="3"/>
<path class="st2" d="M1341.3,562.2H347.9c-1.5,0-2.8-1.3-2.8-2.8l0,0c0-1.5,1.3-2.8,2.8-2.8h993.4c1.5,0,2.8,1.3,2.8,2.8l0,0
	C1344.1,560.9,1342.9,562.2,1341.3,562.2z"/>
<linearGradient id="SVGID_1_" gradientUnits="userSpaceOnUse" x1="345" y1="-22.1" x2="1344.1001" y2="-22.1" gradientTransform="matrix(1 0 0 -1 0 548)">
	<stop  offset="5.913846e-07" style="stop-color:#E7EAF3"/>
	<stop  offset="5.235745e-02" style="stop-color:#F8FAFD"/>
	<stop  offset="0.1708" style="stop-color:#FDFDFD"/>
	<stop  offset="0.5" style="stop-color:#FFFFFF"/>
	<stop  offset="0.8292" style="stop-color:#FDFDFD"/>
	<stop  offset="0.9476" style="stop-color:#F8FAFD"/>
	<stop  offset="0.9955" style="stop-color:#E7EAF3"/>
</linearGradient>
<path class="st3" d="M844.6,564L345,562.2c0,0,24.1,11.3,117.8,15.8H843h3.1h380.2c93.7-4.5,117.8-15.8,117.8-15.8L844.6,564z"/>
<linearGradient id="SVGID_2_" gradientUnits="userSpaceOnUse" x1="748.9" y1="1166.7047" x2="940" y2="1166.7047" gradientTransform="matrix(1 0 0 1 0 -606.5047)">
	<stop  offset="5.913846e-07" style="stop-color:#E7EAF3"/>
	<stop  offset="5.235745e-02" style="stop-color:#F8FAFD"/>
	<stop  offset="0.1708" style="stop-color:#FDFDFD"/>
	<stop  offset="0.5" style="stop-color:#FFFFFF"/>
	<stop  offset="0.8292" style="stop-color:#FDFDFD"/>
	<stop  offset="0.9476" style="stop-color:#F8FAFD"/>
	<stop  offset="0.9955" style="stop-color:#E7EAF3"/>
</linearGradient>
<path class="st4" d="M936.4,563.7h-184c-1.9,0-3.5-1.6-3.5-3.5v-3.5H940v3.5C940,562.1,938.4,563.7,936.4,563.7z"/>
<g>
	<g>
		<path id="showcaseMockup1_11" class="st1" d="M1216,507.7H469.4c-2.3,0-4.2-1.9-4.2-4.2V41.9c0-2.3,1.9-4.2,4.2-4.2H1216
			c2.3,0,4.2,1.9,4.2,4.2v461.6C1220.2,505.9,1218.3,507.7,1216,507.7z"/>
	</g>
	<g>
		<g>
			<g>
				<defs>
					<path id="SVGID_3_" d="M1216,507.7H469.4c-2.3,0-4.2-1.9-4.2-4.2V41.9c0-2.3,1.9-4.2,4.2-4.2H1216c2.3,0,4.2,1.9,4.2,4.2v461.6
						C1220.2,505.9,1218.3,507.7,1216,507.7z"/>
				</defs>
				<clipPath id="SVGID_4_">
					<use xlink:href="#SVGID_3_"  style="overflow:visible;"/>
				</clipPath>
				<g class="st5">
					
						<image style="overflow:visible;enable-background:new    ;" width="300" height="360" id="SVGshowcaseMockup1Img1" xlink:href="img1.jpg"  transform="matrix(1.8978 0 0 1.8978 558.013 -68.8571)">
					</image>
				</g>
			</g>
		</g>
	</g>
	<g>
		<path class="st6" d="M1216,507.7H469.4c-2.3,0-4.2-1.9-4.2-4.2V41.9c0-2.3,1.9-4.2,4.2-4.2H1216c2.3,0,4.2,1.9,4.2,4.2v461.6
			C1220.2,505.9,1218.3,507.7,1216,507.7z"/>
	</g>
</g>
<path class="st7" d="M511.8,490.7H215c-0.9,0-1.6-0.7-1.6-1.6V132.4c0-0.9,0.7-1.6,1.6-1.6h296.8c0.9,0,1.6,0.7,1.6,1.6v356.8
	C513.4,490,512.7,490.7,511.8,490.7z"/>
<g>
	<g>
		<path id="showcaseMockup1_13" class="st8" d="M502.8,481.7H206c-0.9,0-1.6-0.7-1.6-1.6V123.4c0-0.9,0.7-1.6,1.6-1.6h296.8
			c0.9,0,1.6,0.7,1.6,1.6v356.8C504.4,481,503.7,481.7,502.8,481.7z"/>
	</g>
	<g>
		<g>
			<g>
				<defs>
					<path id="SVGID_5_" d="M502.8,481.7H206c-0.9,0-1.6-0.7-1.6-1.6V123.4c0-0.9,0.7-1.6,1.6-1.6h296.8c0.9,0,1.6,0.7,1.6,1.6
						v356.8C504.4,481,503.7,481.7,502.8,481.7z"/>
				</defs>
				<clipPath id="SVGID_6_">
					<use xlink:href="#SVGID_5_"  style="overflow:visible;"/>
				</clipPath>
				<g class="st9">
					
						<image style="overflow:visible;enable-background:new    ;" width="300" height="360" id="SVGshowcaseMockup1Img2" xlink:href="img1.jpg"  transform="matrix(1 0 0 1 204.1814 121.7503)">
					</image>
				</g>
			</g>
		</g>
	</g>
	<g>
		<path class="st6" d="M502.8,481.7H206c-0.9,0-1.6-0.7-1.6-1.6V123.4c0-0.9,0.7-1.6,1.6-1.6h296.8c0.9,0,1.6,0.7,1.6,1.6v356.8
			C504.4,481,503.7,481.7,502.8,481.7z"/>
	</g>
</g>
</svg>
